<?xml version="1.0" encoding="utf-8"?>
<svg xmlns="http://www.w3.org/2000/svg" xmlns:xlink="http://www.w3.org/1999/xlink" style="margin: auto; background: none; display: block; shape-rendering: auto;" width="200px" height="200px" viewBox="0 0 100 100" preserveAspectRatio="xMidYMid">
<g transform="rotate(0 50 50)">
  <rect x="47" y="16" rx="3" ry="6" width="6" height="12" fill="#ffffff">
    <animate attributeName="opacity" values="1;0" keyTimes="0;1" dur="2.272727272727273s" begin="-2.097902097902098s" repeatCount="indefinite"></animate>
  </rect>
</g><g transform="rotate(27.692307692307693 50 50)">
  <rect x="47" y="16" rx="3" ry="6" width="6" height="12" fill="#ffffff">
    <animate attributeName="opacity" values="1;0" keyTimes="0;1" dur="2.272727272727273s" begin="-1.9230769230769231s" repeatCount="indefinite"></animate>
  </rect>
</g><g transform="rotate(55.38461538461539 50 50)">
  <rect x="47" y="16" rx="3" ry="6" width="6" height="12" fill="#ffffff">
    <animate attributeName="opacity" values="1;0" keyTimes="0;1" dur="2.272727272727273s" begin="-1.7482517482517483s" repeatCount="indefinite"></animate>
  </rect>
</g><g transform="rotate(83.07692307692308 50 50)">
  <rect x="47" y="16" rx="3" ry="6" width="6" height="12" fill="#ffffff">
    <animate attributeName="opacity" values="1;0" keyTimes="0;1" dur="2.272727272727273s" begin="-1.5734265734265735s" repeatCount="indefinite"></animate>
  </rect>
</g><g transform="rotate(110.76923076923077 50 50)">
  <rect x="47" y="16" rx="3" ry="6" width="6" height="12" fill="#ffffff">
    <animate attributeName="opacity" values="1;0" keyTimes="0;1" dur="2.272727272727273s" begin="-1.3986013986013988s" repeatCount="indefinite"></animate>
  </rect>
</g><g transform="rotate(138.46153846153845 50 50)">
  <rect x="47" y="16" rx="3" ry="6" width="6" height="12" fill="#ffffff">
    <animate attributeName="opacity" values="1;0" keyTimes="0;1" dur="2.272727272727273s" begin="-1.2237762237762237s" repeatCount="indefinite"></animate>
  </rect>
</g><g transform="rotate(166.15384615384616 50 50)">
  <rect x="47" y="16" rx="3" ry="6" width="6" height="12" fill="#ffffff">
    <animate attributeName="opacity" values="1;0" keyTimes="0;1" dur="2.272727272727273s" begin="-1.048951048951049s" repeatCount="indefinite"></animate>
  </rect>
</g><g transform="rotate(193.84615384615384 50 50)">
  <rect x="47" y="16" rx="3" ry="6" width="6" height="12" fill="#ffffff">
    <animate attributeName="opacity" values="1;0" keyTimes="0;1" dur="2.272727272727273s" begin="-0.8741258741258742s" repeatCount="indefinite"></animate>
  </rect>
</g><g transform="rotate(221.53846153846155 50 50)">
  <rect x="47" y="16" rx="3" ry="6" width="6" height="12" fill="#ffffff">
    <animate attributeName="opacity" values="1;0" keyTimes="0;1" dur="2.272727272727273s" begin="-0.6993006993006994s" repeatCount="indefinite"></animate>
  </rect>
</g><g transform="rotate(249.23076923076923 50 50)">
  <rect x="47" y="16" rx="3" ry="6" width="6" height="12" fill="#ffffff">
    <animate attributeName="opacity" values="1;0" keyTimes="0;1" dur="2.272727272727273s" begin="-0.5244755244755245s" repeatCount="indefinite"></animate>
  </rect>
</g><g transform="rotate(276.9230769230769 50 50)">
  <rect x="47" y="16" rx="3" ry="6" width="6" height="12" fill="#ffffff">
    <animate attributeName="opacity" values="1;0" keyTimes="0;1" dur="2.272727272727273s" begin="-0.3496503496503497s" repeatCount="indefinite"></animate>
  </rect>
</g><g transform="rotate(304.61538461538464 50 50)">
  <rect x="47" y="16" rx="3" ry="6" width="6" height="12" fill="#ffffff">
    <animate attributeName="opacity" values="1;0" keyTimes="0;1" dur="2.272727272727273s" begin="-0.17482517482517484s" repeatCount="indefinite"></animate>
  </rect>
</g><g transform="rotate(332.3076923076923 50 50)">
  <rect x="47" y="16" rx="3" ry="6" width="6" height="12" fill="#ffffff">
    <animate attributeName="opacity" values="1;0" keyTimes="0;1" dur="2.272727272727273s" begin="0s" repeatCount="indefinite"></animate>
  </rect>
</g>
<!-- [ldio] generated by https://loading.io/ --></svg>